<svg width="156" height="51" viewBox="0 0 156 51" fill="none" xmlns="http://www.w3.org/2000/svg">
<path d="M148.409 30.4722H150.421V41.5883H148.409V30.4722Z" fill="#6A9921"/>
<path d="M143.224 33.5682H145.229V41.5883H143.224V40.7406C142.831 41.1141 142.436 41.3843 142.038 41.5514C141.644 41.7136 141.217 41.7947 140.755 41.7947C139.718 41.7947 138.821 41.3942 138.064 40.5932C137.308 39.7872 136.929 38.7872 136.929 37.593C136.929 36.3546 137.295 35.3398 138.028 34.5486C138.76 33.7574 139.649 33.3618 140.696 33.3618C141.178 33.3618 141.63 33.4527 142.052 33.6346C142.475 33.8164 142.866 34.0891 143.224 34.4528V33.5682ZM141.109 35.2194C140.485 35.2194 139.966 35.4405 139.553 35.8828C139.141 36.3202 138.934 36.8829 138.934 37.5709C138.934 38.2638 139.143 38.8338 139.561 39.281C139.983 39.7282 140.502 39.9518 141.116 39.9518C141.75 39.9518 142.276 39.7332 142.694 39.2958C143.111 38.8535 143.32 38.2761 143.32 37.5635C143.32 36.8657 143.111 36.3005 142.694 35.8681C142.276 35.4356 141.748 35.2194 141.109 35.2194Z" fill="#6A9921"/>
<path d="M131.656 30.6122H133.661V33.5682H134.855V35.3004H133.661V41.5882H131.656V35.3004H130.624V33.5682H131.656V30.6122Z" fill="#6A9921"/>
<path d="M127.216 30.2658C127.57 30.2658 127.872 30.3936 128.123 30.6491C128.379 30.9047 128.506 31.2143 128.506 31.5779C128.506 31.9367 128.381 32.2438 128.13 32.4993C127.88 32.75 127.58 32.8753 127.231 32.8753C126.872 32.8753 126.565 32.7475 126.31 32.492C126.059 32.2315 125.934 31.917 125.934 31.5484C125.934 31.1946 126.059 30.8924 126.31 30.6417C126.56 30.3911 126.863 30.2658 127.216 30.2658ZM126.206 33.5682H128.226V41.5883H126.206V33.5682Z" fill="#6A9921"/>
<path d="M121.029 33.5682H123.034V40.4384C123.034 41.7947 122.762 42.7923 122.216 43.4311C121.484 44.296 120.381 44.7285 118.906 44.7285C118.12 44.7285 117.459 44.6302 116.924 44.4336C116.388 44.2371 115.936 43.9471 115.567 43.5638C115.199 43.1854 114.926 42.7235 114.749 42.178H116.968C117.164 42.4041 117.417 42.5736 117.727 42.6866C118.037 42.8046 118.403 42.8635 118.825 42.8635C119.366 42.8635 119.801 42.78 120.13 42.6129C120.459 42.4458 120.69 42.2296 120.823 41.9642C120.961 41.6989 121.029 41.2418 121.029 40.5932C120.676 40.947 120.305 41.2025 119.916 41.3598C119.528 41.5121 119.088 41.5883 118.597 41.5883C117.521 41.5883 116.612 41.2001 115.869 40.4236C115.127 39.6472 114.756 38.6643 114.756 37.4751C114.756 36.2023 115.15 35.1801 115.936 34.4086C116.648 33.7107 117.499 33.3618 118.486 33.3618C118.948 33.3618 119.383 33.4478 119.791 33.6198C120.204 33.7869 120.617 34.0646 121.029 34.4528V33.5682ZM118.943 35.2415C118.309 35.2415 117.786 35.4553 117.373 35.8828C116.96 36.3055 116.754 36.8387 116.754 37.4824C116.754 38.1508 116.965 38.6987 117.388 39.1262C117.811 39.5538 118.341 39.7676 118.98 39.7676C119.604 39.7676 120.118 39.5587 120.521 39.141C120.929 38.7233 121.133 38.1753 121.133 37.4972C121.133 36.8288 120.929 36.2858 120.521 35.8681C120.113 35.4504 119.587 35.2415 118.943 35.2415Z" fill="#6A9921"/>
<path d="M110.906 30.2658C111.26 30.2658 111.562 30.3936 111.813 30.6491C112.068 30.9047 112.196 31.2143 112.196 31.5779C112.196 31.9367 112.071 32.2438 111.82 32.4993C111.57 32.75 111.27 32.8753 110.921 32.8753C110.562 32.8753 110.255 32.7475 109.999 32.492C109.749 32.2315 109.624 31.917 109.624 31.5484C109.624 31.1946 109.749 30.8924 109.999 30.6417C110.25 30.3911 110.552 30.2658 110.906 30.2658ZM109.896 33.5682H111.916V41.5883H109.896V33.5682Z" fill="#6A9921"/>
<path d="M98.4165 30.7449H100.864C102.441 30.7449 103.613 30.9415 104.38 31.3346C105.147 31.7229 105.778 32.3568 106.274 33.2365C106.771 34.1161 107.019 35.1432 107.019 36.3177C107.019 37.1531 106.879 37.9222 106.599 38.625C106.324 39.3228 105.94 39.9027 105.449 40.3646C104.962 40.8265 104.434 41.146 103.864 41.3229C103.294 41.4998 102.306 41.5883 100.901 41.5883H98.4165V30.7449ZM100.473 32.7352V39.5685H101.431C102.375 39.5685 103.058 39.4604 103.481 39.2441C103.908 39.0279 104.257 38.6643 104.527 38.1532C104.798 37.6421 104.933 37.0131 104.933 36.2661C104.933 35.1162 104.611 34.2242 103.967 33.5903C103.387 33.0202 102.456 32.7352 101.173 32.7352H100.473Z" fill="#6A9921"/>
<path d="M142.864 12.657H155.071V15.7087H150.493V28.5239H147.441V15.7087H142.864V12.657Z" fill="white"/>
<path d="M125.86 11.7171L136.231 22.0886V12.6459H139.283V29.4527L128.911 19.0811V28.5128H125.86V11.7171Z" fill="white"/>
<path d="M119.227 28.5239V12.657H122.279V28.5239H119.227Z" fill="white"/>
<path d="M115.635 12.0267V28.5239H112.584V19.3908L107.099 24.8861L101.604 19.3908V28.5239H98.5522V12.0267L107.099 20.5739L115.635 12.0267Z" fill="white"/>
<path d="M82.7645 12.657H94.9716V15.7087H85.8163V19.0701H92.2183V22.1219H85.8163V25.4721H94.9716V28.5239H82.7645V12.657Z" fill="white"/>
<path d="M78.7305 26.2019C77.1825 27.7499 75.3102 28.5239 73.1135 28.5239C70.9242 28.5239 69.0555 27.7499 67.5075 26.2019C65.9595 24.6539 65.1855 22.7853 65.1855 20.596C65.1855 18.3993 65.9595 16.527 67.5075 14.979C69.0555 13.431 70.9242 12.657 73.1135 12.657C75.3102 12.657 77.1825 13.431 78.7305 14.979L76.5743 17.1351C75.6161 16.1842 74.4624 15.7087 73.1135 15.7087C71.7719 15.7087 70.6219 16.1842 69.6637 17.1351C68.7128 18.086 68.2373 19.2396 68.2373 20.596C68.2373 21.9449 68.7128 23.0949 69.6637 24.0458C70.6219 24.9967 71.7719 25.4721 73.1135 25.4721C74.2413 25.4721 75.2438 25.1294 76.121 24.4438V22.1219H72.5053V19.0701H79.1728V25.7486L78.7305 26.2019Z" fill="white"/>
<path d="M56.6513 11.9604L64.0374 28.5239H60.6982L59.8799 26.6884H53.4226L52.6044 28.5239H49.2651L56.6513 11.9604ZM56.6513 19.4571L54.7826 23.6477H58.5199L56.6513 19.4571Z" fill="white"/>
<path d="M46.3367 26.2019C44.7887 27.7499 42.9164 28.5239 40.7197 28.5239C38.5304 28.5239 36.6617 27.7499 35.1137 26.2019C33.5657 24.6539 32.7917 22.7853 32.7917 20.596C32.7917 18.3993 33.5657 16.527 35.1137 14.979C36.6617 13.431 38.5304 12.657 40.7197 12.657C42.9164 12.657 44.7887 13.431 46.3367 14.979L44.1805 17.1351C43.2223 16.1842 42.0686 15.7087 40.7197 15.7087C39.3781 15.7087 38.2281 16.1842 37.2699 17.1351C36.319 18.086 35.8435 19.2396 35.8435 20.596C35.8435 21.9449 36.319 23.0949 37.2699 24.0458C38.2281 24.9967 39.3781 25.4721 40.7197 25.4721C41.8475 25.4721 42.85 25.1294 43.7272 24.4438V22.1219H40.1115V19.0701H46.779V25.7486L46.3367 26.2019Z" fill="white"/>
<path d="M15.7877 11.7171L26.1593 22.0886V12.6459H29.211V29.4527L18.8395 19.0811V28.5128H15.7877V11.7171Z" fill="white"/>
<path d="M0 12.657H12.207V15.7087H3.05176V19.0701H9.45381V22.1219H3.05176V25.4721H12.207V28.5239H0V12.657Z" fill="white"/>
<path d="M70.0985 30.5604L95.066 30.5561C95.066 30.5561 95.066 30.5561 95.066 30.5604C95.066 41.5891 83.7924 50.6607 70.0985 50.6607V30.5604Z" fill="#68D237"/>
<path d="M55.7513 12.1934C55.7513 12.1934 45.5852 9.96679 47.3746 0C47.3746 0 57.0599 4.89665 55.7513 12.1934Z" fill="#6A9921"/>
</svg>
