<svg width="170" height="164" viewBox="0 0 170 164" fill="none" xmlns="http://www.w3.org/2000/svg">
<path d="M0 40C0 17.9086 17.9086 0 40 0H130C152.091 0 170 17.9086 170 40V123.59H0V40Z" fill="#68D237"/>
<path d="M38.9985 73.932L59.5905 37.272H62.3205L41.4165 73.932H38.9985ZM38.9985 75.648V73.932L40.0125 73.464H77.9205V75.648H38.9985ZM67.1565 90V54.12H69.5745V90H67.1565ZM86.5072 90.78C85.6232 90.78 84.8692 90.468 84.2452 89.844C83.6732 89.168 83.3872 88.414 83.3872 87.582C83.3872 86.698 83.6732 85.97 84.2452 85.398C84.8692 84.774 85.6232 84.462 86.5072 84.462C87.3912 84.462 88.1192 84.774 88.6912 85.398C89.3152 85.97 89.6272 86.698 89.6272 87.582C89.6272 88.414 89.3152 89.168 88.6912 89.844C88.1192 90.468 87.3912 90.78 86.5072 90.78ZM104.419 90L121.891 68.16L122.671 68.55C121.735 69.226 120.721 69.798 119.629 70.266C118.537 70.734 117.393 71.098 116.197 71.358C115.053 71.618 113.857 71.748 112.609 71.748C109.437 71.748 106.525 70.942 103.873 69.33C101.273 67.718 99.1665 65.586 97.5545 62.934C95.9945 60.23 95.2145 57.292 95.2145 54.12C95.2145 50.844 96.0205 47.88 97.6325 45.228C99.2445 42.576 101.377 40.47 104.029 38.91C106.733 37.298 109.723 36.492 112.999 36.492C116.275 36.492 119.239 37.272 121.891 38.832C124.595 40.392 126.727 42.498 128.287 45.15C129.847 47.802 130.627 50.766 130.627 54.042C130.627 58.202 129.197 62.102 126.337 65.742L107.461 90H104.419ZM112.921 69.642C115.729 69.642 118.277 68.966 120.565 67.614C122.905 66.21 124.751 64.338 126.103 61.998C127.455 59.606 128.131 56.98 128.131 54.12C128.131 51.208 127.455 48.582 126.103 46.242C124.751 43.902 122.905 42.056 120.565 40.704C118.277 39.3 115.729 38.598 112.921 38.598C110.165 38.598 107.617 39.3 105.277 40.704C102.989 42.108 101.143 44.006 99.7385 46.398C98.3865 48.738 97.7105 51.312 97.7105 54.12C97.7105 56.928 98.3865 59.502 99.7385 61.842C101.143 64.182 102.989 66.08 105.277 67.536C107.617 68.94 110.165 69.642 112.921 69.642Z" fill="#0D0D0C"/>
<rect width="170" height="40" transform="translate(0 123.59)" fill="#2D2D2D"/>
<path d="M41.5073 149.814C40.1313 149.814 39.0807 149.457 38.3553 148.742C37.6407 148.027 37.2833 146.966 37.2833 145.558V138.438H39.1393V145.35C39.1393 145.958 39.2087 146.47 39.3473 146.886C39.4967 147.291 39.742 147.601 40.0833 147.814C40.4353 148.017 40.91 148.118 41.5073 148.118C42.1047 148.118 42.574 148.011 42.9153 147.798C43.2673 147.585 43.518 147.275 43.6673 146.87C43.8167 146.465 43.8913 145.958 43.8913 145.35V138.438H45.7313V145.478C45.7313 146.918 45.374 148.001 44.6593 148.726C43.9447 149.451 42.894 149.814 41.5073 149.814ZM51.511 149.798C50.3376 149.798 49.3776 149.494 48.631 148.886C47.895 148.278 47.4416 147.467 47.271 146.454L49.079 146.006C49.1963 146.71 49.4736 147.243 49.911 147.606C50.359 147.969 50.9083 148.15 51.559 148.15C51.9216 148.15 52.247 148.086 52.535 147.958C52.823 147.819 53.047 147.627 53.207 147.382C53.3776 147.137 53.463 146.859 53.463 146.55C53.463 146.219 53.3723 145.947 53.191 145.734C53.0096 145.51 52.7483 145.313 52.407 145.142C52.0656 144.961 51.6496 144.774 51.159 144.582C50.487 144.326 49.9163 144.049 49.447 143.75C48.9776 143.451 48.6203 143.099 48.375 142.694C48.1296 142.278 48.007 141.787 48.007 141.222C48.007 140.635 48.151 140.118 48.439 139.67C48.727 139.211 49.1323 138.854 49.655 138.598C50.1776 138.342 50.7803 138.214 51.463 138.214C52.199 138.214 52.8496 138.379 53.415 138.71C53.9803 139.041 54.4336 139.542 54.775 140.214L53.303 141.11C53.079 140.705 52.807 140.395 52.487 140.182C52.167 139.958 51.8043 139.846 51.399 139.846C51.111 139.846 50.8496 139.905 50.615 140.022C50.3803 140.129 50.1936 140.283 50.055 140.486C49.927 140.689 49.863 140.923 49.863 141.19C49.863 141.467 49.943 141.713 50.103 141.926C50.263 142.129 50.5083 142.315 50.839 142.486C51.1803 142.657 51.6123 142.843 52.135 143.046C52.807 143.302 53.3776 143.579 53.847 143.878C54.3163 144.177 54.6736 144.534 54.919 144.95C55.175 145.355 55.303 145.851 55.303 146.438C55.303 147.089 55.143 147.665 54.823 148.166C54.503 148.667 54.055 149.067 53.479 149.366C52.9136 149.654 52.2576 149.798 51.511 149.798ZM57.0672 149.59V138.438H64.4752V140.086H58.9232V143.046H64.0432V144.71H58.9232V147.942H64.4752V149.59H57.0672ZM66.3485 149.59V138.438H69.9165C70.8018 138.438 71.5218 138.571 72.0765 138.838C72.6311 139.094 73.0365 139.462 73.2925 139.942C73.5591 140.422 73.6925 140.987 73.6925 141.638C73.6925 142.63 73.4045 143.403 72.8285 143.958C72.2631 144.502 71.4525 144.817 70.3965 144.902C70.1831 144.902 69.9538 144.902 69.7085 144.902C69.4631 144.902 69.2445 144.902 69.0525 144.902H68.2045V149.59H66.3485ZM72.4605 149.59L69.6285 144.694L71.5325 144.47L74.6045 149.59H72.4605ZM68.2045 143.27H69.7245C70.1298 143.27 70.4871 143.222 70.7965 143.126C71.1165 143.03 71.3671 142.865 71.5485 142.63C71.7405 142.395 71.8365 142.07 71.8365 141.654C71.8365 141.238 71.7405 140.918 71.5485 140.694C71.3671 140.47 71.1165 140.315 70.7965 140.23C70.4765 140.134 70.1191 140.086 69.7245 140.086H68.2045V143.27ZM80.2235 149.59V138.438H83.7915C84.6768 138.438 85.3968 138.571 85.9515 138.838C86.5061 139.094 86.9115 139.462 87.1675 139.942C87.4341 140.422 87.5675 140.987 87.5675 141.638C87.5675 142.63 87.2795 143.403 86.7035 143.958C86.1381 144.502 85.3275 144.817 84.2715 144.902C84.0581 144.902 83.8288 144.902 83.5835 144.902C83.3381 144.902 83.1195 144.902 82.9275 144.902H82.0795V149.59H80.2235ZM86.3355 149.59L83.5035 144.694L85.4075 144.47L88.4795 149.59H86.3355ZM82.0795 143.27H83.5995C84.0048 143.27 84.3621 143.222 84.6715 143.126C84.9915 143.03 85.2421 142.865 85.4235 142.63C85.6155 142.395 85.7115 142.07 85.7115 141.654C85.7115 141.238 85.6155 140.918 85.4235 140.694C85.2421 140.47 84.9915 140.315 84.6715 140.23C84.3515 140.134 83.9941 140.086 83.5995 140.086H82.0795V143.27ZM88.9822 149.59L93.3982 138.438H94.8062L99.2062 149.59H97.1902L94.1022 141.142L91.0142 149.59H88.9822ZM91.7342 147.254L92.3102 145.606H95.8782L96.4862 147.254H91.7342ZM101.628 149.59V140.086H98.0763V138.438H107.036V140.086H103.5V149.59H101.628ZM108.38 149.59V138.438H110.236V149.59H108.38ZM112.505 149.59V138.438H114.425L119.801 147.174H119.337V138.438H121.193V149.59H119.241L113.913 140.838H114.361V149.59H112.505ZM128.162 149.814C127.159 149.814 126.269 149.574 125.49 149.094C124.711 148.614 124.103 147.937 123.666 147.062C123.229 146.187 123.01 145.169 123.01 144.006C123.01 142.843 123.229 141.83 123.666 140.966C124.114 140.091 124.733 139.414 125.522 138.934C126.311 138.454 127.229 138.214 128.274 138.214C129.437 138.214 130.439 138.502 131.282 139.078C132.135 139.654 132.749 140.454 133.122 141.478L131.394 142.102C131.138 141.43 130.743 140.907 130.21 140.534C129.677 140.161 129.031 139.974 128.274 139.974C127.581 139.974 126.978 140.139 126.466 140.47C125.954 140.801 125.554 141.265 125.266 141.862C124.989 142.459 124.85 143.174 124.85 144.006C124.85 144.838 124.989 145.558 125.266 146.166C125.554 146.763 125.954 147.227 126.466 147.558C126.978 147.889 127.581 148.054 128.274 148.054C128.637 148.054 129.005 148.006 129.378 147.91C129.751 147.803 130.098 147.627 130.418 147.382C130.738 147.137 130.994 146.795 131.186 146.358C131.389 145.91 131.49 145.35 131.49 144.678V143.974L131.906 145.254H128.722V143.606H133.122V149.59H131.49L131.234 147.654L131.554 147.91C131.351 148.337 131.079 148.694 130.738 148.982C130.407 149.259 130.018 149.467 129.57 149.606C129.133 149.745 128.663 149.814 128.162 149.814Z" fill="white"/>
</svg>
